<svg width="518.9" height="90.778" viewBox="0 0 518.9 90.778" xmlns="http://www.w3.org/2000/svg"><g id="svgGroup" stroke-linecap="round" fill-rule="evenodd" font-size="9pt" stroke="#000" stroke-width="0.25mm" fill="#00000000" style="stroke:#000;stroke-width:0.25mm;fill:#00000000"><path d="M 26.1 71.5 L 19.5 71.5 L 35.2 1.5 L 41.8 1.5 L 26.1 71.5 Z M 25.8 71.5 L 19.2 71.5 L 3.5 1.5 L 10.1 1.5 L 25.8 71.5 Z M 384.2 71.5 L 377.6 71.5 L 377.6 0 L 384.2 0 L 384.2 71.5 Z M 150.6 71.5 L 144 71.5 L 130.3 1.5 L 136.9 1.5 L 150.6 71.5 Z M 122.5 71.5 L 115.9 71.5 L 129.6 1.5 L 136.2 1.5 L 122.5 71.5 Z M 120.7 71.5 L 114.1 71.5 L 101.4 1.5 L 108 1.5 L 120.7 71.5 Z M 152.4 71.5 L 145.8 71.5 L 158.5 1.5 L 165.1 1.5 L 152.4 71.5 Z M 6.6 71.5 L 0 71.5 L 0 1.5 L 6.6 1.5 L 6.6 71.5 Z M 45.4 71.5 L 38.8 71.5 L 38.8 1.5 L 45.4 1.5 L 45.4 71.5 Z M 69.5 76.5 L 87.8 21.5 L 94.4 21.5 L 76.1 76.5 M 75.2 64.3 L 71.7 73.4 L 54.4 21.5 L 61 21.5 L 75.2 64.3 Z M 424.2 50 L 424.2 36.4 L 428 36.4 L 428 50 Q 428 56.8 425.9 62 A 23.042 23.042 0 0 1 423.766 66.11 A 17.115 17.115 0 0 1 420.15 70.1 Q 416.5 73 411.7 73 Q 407.4 73 403.75 70.9 Q 400.1 68.8 397.9 65.15 A 15.424 15.424 0 0 1 395.702 57.28 A 18.249 18.249 0 0 1 395.7 57 A 16.002 16.002 0 0 1 396.412 52.157 A 14.056 14.056 0 0 1 397.95 48.85 Q 400.2 45.3 404.05 43.2 A 17.34 17.34 0 0 1 411.223 41.151 A 20.984 20.984 0 0 1 412.7 41.1 M 221.4 71.5 L 214.8 71.5 L 214.8 21.5 L 221.4 21.5 L 221.4 71.5 Z M 292.4 71.5 L 285.8 71.5 L 285.8 21.5 L 292.4 21.5 L 292.4 71.5 Z M 352.2 71.5 L 345.6 71.5 L 345.6 21.5 L 352.2 21.5 L 352.2 71.5 Z M 447.9 71.5 L 441.3 71.5 L 441.3 21.5 L 447.9 21.5 L 447.9 71.5 Z M 518.9 71.5 L 512.3 71.5 L 512.3 21.5 L 518.9 21.5 L 518.9 71.5 Z M 177.7 38 L 171.1 38 A 20.566 20.566 0 0 1 171.735 32.8 A 17.26 17.26 0 0 1 173.35 28.75 Q 175.6 24.7 179.45 22.35 A 16.148 16.148 0 0 1 186.991 20.037 A 19.655 19.655 0 0 1 188.2 20 A 17.463 17.463 0 0 1 193.649 20.828 A 15.608 15.608 0 0 1 196.95 22.35 Q 200.8 24.7 203.05 28.75 Q 205.3 32.8 205.3 38 L 198.7 38 A 18.291 18.291 0 0 0 198.404 34.601 Q 198.044 32.7 197.247 31.205 A 9.287 9.287 0 0 0 195.95 29.35 A 8.962 8.962 0 0 0 191.038 26.583 A 13.471 13.471 0 0 0 188.2 26.3 A 12.692 12.692 0 0 0 184.949 26.694 A 9.042 9.042 0 0 0 180.5 29.35 A 9.961 9.961 0 0 0 178.316 33.308 Q 177.859 34.841 177.741 36.683 A 20.632 20.632 0 0 0 177.7 38 Z M 171.1 55 L 177.7 55 Q 177.7 60.5 180.5 63.6 A 9.199 9.199 0 0 0 185.95 66.518 A 13.347 13.347 0 0 0 188.2 66.7 A 12.957 12.957 0 0 0 191.372 66.334 A 8.857 8.857 0 0 0 195.95 63.6 Q 198.427 60.808 198.673 56.069 A 20.621 20.621 0 0 0 198.7 55 L 205.3 55 A 20.566 20.566 0 0 1 204.665 60.2 A 17.26 17.26 0 0 1 203.05 64.25 Q 200.8 68.3 196.95 70.65 A 16.148 16.148 0 0 1 189.409 72.963 A 19.655 19.655 0 0 1 188.2 73 A 17.463 17.463 0 0 1 182.751 72.172 A 15.608 15.608 0 0 1 179.45 70.65 Q 175.6 68.3 173.35 64.25 Q 171.1 60.2 171.1 55 Z M 258.1 36.5 A 18.498 18.498 0 0 1 258.823 31.254 A 16.184 16.184 0 0 1 260.15 28.05 Q 262.2 24.3 265.75 22.15 A 14.952 14.952 0 0 1 272.69 20.034 A 18.13 18.13 0 0 1 273.8 20 A 16.156 16.156 0 0 1 279.258 20.904 A 14.865 14.865 0 0 1 281.9 22.15 Q 285.5 24.3 287.55 28.05 A 16.852 16.852 0 0 1 289.539 34.912 A 20.499 20.499 0 0 1 289.6 36.5 L 285.8 36.5 A 10.082 10.082 0 0 0 285.141 32.798 A 9.197 9.197 0 0 0 282.8 29.4 A 10.309 10.309 0 0 0 276.734 26.683 A 13.867 13.867 0 0 0 275.2 26.6 A 11.897 11.897 0 0 0 271.43 27.175 A 10.057 10.057 0 0 0 267.7 29.4 Q 264.7 32.2 264.7 36.5 L 258.1 36.5 Z M 484.6 36.5 A 18.498 18.498 0 0 1 485.323 31.254 A 16.184 16.184 0 0 1 486.65 28.05 Q 488.7 24.3 492.25 22.15 A 14.952 14.952 0 0 1 499.19 20.034 A 18.13 18.13 0 0 1 500.3 20 A 16.156 16.156 0 0 1 505.758 20.904 A 14.865 14.865 0 0 1 508.4 22.15 Q 512 24.3 514.05 28.05 A 16.852 16.852 0 0 1 516.039 34.912 A 20.499 20.499 0 0 1 516.1 36.5 L 512.3 36.5 A 10.082 10.082 0 0 0 511.641 32.798 A 9.197 9.197 0 0 0 509.3 29.4 A 10.309 10.309 0 0 0 503.234 26.683 A 13.867 13.867 0 0 0 501.7 26.6 A 11.897 11.897 0 0 0 497.93 27.175 A 10.057 10.057 0 0 0 494.2 29.4 Q 491.2 32.2 491.2 36.5 L 484.6 36.5 Z M 258.1 56.5 A 20.499 20.499 0 0 0 258.161 58.088 A 16.852 16.852 0 0 0 260.15 64.95 Q 262.2 68.7 265.75 70.85 A 14.467 14.467 0 0 0 268.684 72.207 A 16.099 16.099 0 0 0 273.8 73 A 18.329 18.329 0 0 0 274.636 72.981 A 15.297 15.297 0 0 0 281.9 70.85 Q 285.5 68.7 287.55 64.95 A 16.184 16.184 0 0 0 288.877 61.746 A 18.498 18.498 0 0 0 289.6 56.5 L 285.8 56.5 Q 285.8 60.8 282.8 63.6 A 10.024 10.024 0 0 1 278.858 65.883 A 12.392 12.392 0 0 1 275.2 66.4 A 13.665 13.665 0 0 1 274.166 66.362 A 10.329 10.329 0 0 1 267.7 63.6 A 9.197 9.197 0 0 1 265.359 60.202 A 10.082 10.082 0 0 1 264.7 56.5 M 484.6 56.5 A 20.499 20.499 0 0 0 484.661 58.088 A 16.852 16.852 0 0 0 486.65 64.95 Q 488.7 68.7 492.25 70.85 A 14.467 14.467 0 0 0 495.184 72.207 A 16.099 16.099 0 0 0 500.3 73 A 18.329 18.329 0 0 0 501.136 72.981 A 15.297 15.297 0 0 0 508.4 70.85 Q 512 68.7 514.05 64.95 A 16.184 16.184 0 0 0 515.377 61.746 A 18.498 18.498 0 0 0 516.1 56.5 L 512.3 56.5 Q 512.3 60.8 509.3 63.6 A 10.024 10.024 0 0 1 505.358 65.883 A 12.392 12.392 0 0 1 501.7 66.4 A 13.665 13.665 0 0 1 500.666 66.362 A 10.329 10.329 0 0 1 494.2 63.6 A 9.197 9.197 0 0 1 491.859 60.202 A 10.082 10.082 0 0 1 491.2 56.5 M 249.1 36.5 A 20.499 20.499 0 0 0 249.039 34.912 A 16.852 16.852 0 0 0 247.05 28.05 Q 245 24.3 241.45 22.15 A 14.467 14.467 0 0 0 238.516 20.793 A 16.099 16.099 0 0 0 233.4 20 A 18.13 18.13 0 0 0 232.29 20.034 A 14.952 14.952 0 0 0 225.35 22.15 Q 221.8 24.3 219.7 28.05 A 15.972 15.972 0 0 0 218.34 31.254 A 18.087 18.087 0 0 0 217.6 36.5 L 221.4 36.5 Q 221.4 32.2 224.4 29.4 A 10.024 10.024 0 0 1 228.342 27.117 A 12.392 12.392 0 0 1 232 26.6 A 13.665 13.665 0 0 1 233.034 26.638 A 10.329 10.329 0 0 1 239.5 29.4 A 9.197 9.197 0 0 1 241.841 32.798 A 10.082 10.082 0 0 1 242.5 36.5 M 475.6 36.5 A 20.499 20.499 0 0 0 475.539 34.912 A 16.852 16.852 0 0 0 473.55 28.05 Q 471.5 24.3 467.95 22.15 A 14.467 14.467 0 0 0 465.016 20.793 A 16.099 16.099 0 0 0 459.9 20 A 18.13 18.13 0 0 0 458.79 20.034 A 14.952 14.952 0 0 0 451.85 22.15 Q 448.3 24.3 446.2 28.05 A 15.972 15.972 0 0 0 444.84 31.254 A 18.087 18.087 0 0 0 444.1 36.5 L 447.9 36.5 Q 447.9 32.2 450.9 29.4 A 10.024 10.024 0 0 1 454.842 27.117 A 12.392 12.392 0 0 1 458.5 26.6 A 13.665 13.665 0 0 1 459.534 26.638 A 10.329 10.329 0 0 1 466 29.4 A 9.197 9.197 0 0 1 468.341 32.798 A 10.082 10.082 0 0 1 469 36.5 M 354.6 22.65 Q 357.5 20.5 361.1 20.5 L 360.7 27.1 L 361.1 20.5 Q 357.5 20.5 354.6 22.65 A 13.414 13.414 0 0 0 352.072 25.108 A 16.429 16.429 0 0 0 350 28.55 A 18.297 18.297 0 0 0 348.808 32.143 A 22.329 22.329 0 0 0 348.3 37 L 352.2 37 A 13.502 13.502 0 0 1 352.369 34.821 A 9.835 9.835 0 0 1 354.6 29.9 A 7.997 7.997 0 0 1 357.183 27.867 A 7.948 7.948 0 0 1 360.7 27.1 A 8.155 8.155 0 0 1 362.139 27.232 A 10.351 10.351 0 0 1 363.85 27.7 Q 364.598 27.972 365.212 28.326 A 6.155 6.155 0 0 1 366.5 29.3 L 369.1 23.5 Q 367.5 22.2 365.45 21.35 Q 363.4 20.5 361.1 20.5 M 249.1 71.5 L 242.5 71.5 L 242.5 36.5 L 249.1 36.5 L 249.1 71.5 Z M 430.8 71.5 L 424.2 71.5 L 424.2 36.5 L 430.8 36.5 L 430.8 71.5 Z M 475.6 71.5 L 469 71.5 L 469 36.5 L 475.6 36.5 L 475.6 71.5 Z M 336.1 48.8 L 302.5 48.8 L 302.5 43.1 L 336.1 43.1 L 336.1 48.8 Z M 424.2 36.5 A 10.592 10.592 0 0 0 423.541 32.705 A 9.571 9.571 0 0 0 421.2 29.2 A 10.217 10.217 0 0 0 414.394 26.318 A 13.442 13.442 0 0 0 413.7 26.3 A 12.566 12.566 0 0 0 409.624 26.943 A 11.183 11.183 0 0 0 406.7 28.45 A 7.876 7.876 0 0 0 403.927 32.134 Q 403.455 33.362 403.252 34.865 A 15.676 15.676 0 0 0 403.2 35.3 L 396.8 33.9 Q 397.3 29.9 399.65 26.8 A 16.867 16.867 0 0 1 405.243 22.086 A 19.593 19.593 0 0 1 405.7 21.85 Q 409.4 20 413.7 20 M 301.9 38 A 20.566 20.566 0 0 1 302.535 32.8 A 17.26 17.26 0 0 1 304.15 28.75 Q 306.4 24.7 310.25 22.35 A 16.148 16.148 0 0 1 317.791 20.037 A 19.655 19.655 0 0 1 319 20 A 19.096 19.096 0 0 1 324.18 20.68 A 16.361 16.361 0 0 1 327.75 22.15 Q 331.6 24.3 333.85 28.05 Q 336.1 31.8 336.1 36.5 L 329.5 36.5 M 301.9 55.1 L 308.5 55.1 Q 308.5 60.6 311.3 63.7 A 9.199 9.199 0 0 0 316.75 66.618 A 13.347 13.347 0 0 0 319 66.8 L 319 73.1 A 17.463 17.463 0 0 1 313.551 72.272 A 15.608 15.608 0 0 1 310.25 70.75 Q 306.4 68.4 304.15 64.35 Q 301.9 60.3 301.9 55.1 Z M 292.4 1.5 L 292.4 21.6 L 285.8 21.6 L 285.8 1.5 L 292.4 1.5 Z M 518.9 1.5 L 518.9 21.6 L 512.3 21.6 L 512.3 1.5 L 518.9 1.5 Z M 264.7 56.5 L 258.1 56.5 L 258.1 36.5 L 264.7 36.5 L 264.7 56.5 Z M 491.2 56.5 L 484.6 56.5 L 484.6 36.5 L 491.2 36.5 L 491.2 56.5 Z M 329.7 57.8 L 336.1 59.2 Q 335.6 63.1 333.25 66.25 Q 330.9 69.4 327.25 71.25 A 17.33 17.33 0 0 1 320.035 73.083 A 20.436 20.436 0 0 1 319.2 73.1 L 319.2 66.8 A 12.262 12.262 0 0 0 323.384 66.104 A 11.099 11.099 0 0 0 326.2 64.6 A 8.146 8.146 0 0 0 329.061 60.679 Q 329.524 59.391 329.697 57.825 A 15.606 15.606 0 0 0 329.7 57.8 Z M 205.3 55.1 L 198.7 55.1 L 198.7 37.9 L 205.3 37.9 L 205.3 55.1 Z M 177.7 55.1 L 171.1 55.1 L 171.1 37.9 L 177.7 37.9 L 177.7 55.1 Z M 308.5 55.1 L 301.9 55.1 L 301.9 38 L 308.5 38 L 308.5 55.1 Z M 69.5 76.5 A 29.091 29.091 0 0 1 69.279 77.162 Q 68.262 80.09 66.911 81.854 A 7.661 7.661 0 0 1 65.1 83.6 A 6.917 6.917 0 0 1 61.174 84.757 Q 59.957 84.757 58.6 84.4 L 57.3 90.2 A 17.918 17.918 0 0 0 58.687 90.517 Q 64.136 91.532 68.4 88.6 Q 71.775 86.28 74.211 81.24 A 38.847 38.847 0 0 0 76.1 76.5 M 412.7 41.1 L 412.7 47.1 L 429.5 47.1 L 429.5 41.1 L 412.7 41.1 Z M 424.2 50 A 36.254 36.254 0 0 1 424.191 50.832 Q 424.14 53.054 423.813 55.009 A 20.834 20.834 0 0 1 422.7 59.15 A 15.666 15.666 0 0 1 421.337 61.876 A 11.307 11.307 0 0 1 418.45 65 A 10.085 10.085 0 0 1 414.934 66.624 A 13.266 13.266 0 0 1 411.7 67 A 8.459 8.459 0 0 1 407.672 65.995 A 10.712 10.712 0 0 1 405.2 64.15 A 9.439 9.439 0 0 1 402.959 60.769 A 10.456 10.456 0 0 1 402.3 57 M 308.5 38 A 20.632 20.632 0 0 1 308.541 36.683 Q 308.659 34.841 309.116 33.308 A 9.961 9.961 0 0 1 311.3 29.35 A 9.042 9.042 0 0 1 315.749 26.694 A 12.692 12.692 0 0 1 319 26.3 A 13.442 13.442 0 0 1 319.694 26.318 A 10.217 10.217 0 0 1 326.5 29.2 A 9.571 9.571 0 0 1 328.841 32.705 A 10.592 10.592 0 0 1 329.5 36.5 M 413.7 20 A 19.096 19.096 0 0 1 418.88 20.68 A 16.361 16.361 0 0 1 422.45 22.15 Q 426.3 24.3 428.55 28.05 Q 430.8 31.8 430.8 36.5 L 424.2 36.5 M 336.1 43.1 L 329.5 43.1 L 329.5 36.5 L 336.1 36.5 L 336.1 43.1 Z M 429.5 41.1 L 412.7 41.1 L 412.7 47.1 M 412.7 47.1 A 11.409 11.409 0 0 0 408.766 47.757 A 10.119 10.119 0 0 0 405.3 49.9 Q 402.3 52.7 402.3 57 M 275.2 66.4 L 273.8 73 L 275.2 66.4 Z M 501.7 66.4 L 500.3 73 L 501.7 66.4 Z M 232 26.6 L 233.4 20 L 232 26.6 Z M 273.8 20 L 275.2 26.6 L 273.8 20 Z M 458.5 26.6 L 459.9 20 L 458.5 26.6 Z M 500.3 20 L 501.7 26.6 L 500.3 20 Z M 319.3 73.1 L 318.9 73.1 L 318.9 66.8 L 319.3 66.8 L 319.3 73.1 Z M 188.4 73 L 188 73 L 188 66.7 L 188.4 66.7 L 188.4 73 Z M 188.4 26.3 L 188 26.3 L 188 20 L 188.4 20 L 188.4 26.3 Z M 69.5 76.5 L 76.1 76.5 L 69.5 76.5 Z M 395.7 57 L 402.3 57 L 395.7 57 Z M 188.2 66.7 L 188.2 73 L 188.2 66.7 Z M 188.2 20 L 188.2 26.3 L 188.2 20 Z M 319 26.3 L 319 20 L 319 26.3 Z M 413.7 26.3 L 413.7 20 L 413.7 26.3 Z M 411.7 73 L 411.7 67 L 411.7 73 Z M 424.2 50 L 428 50 L 424.2 50 Z M 249.1 36.5 242.5 36.5 M 258.1 56.5 264.7 56.5 M 308.5 38 301.9 38 M 475.6 36.5 469 36.5 M 484.6 56.5 491.2 56.5" vector-effect="non-scaling-stroke"/></g></svg>