<svg width="698.3585205078125px" height="121.39999999999999px" xmlns="http://www.w3.org/2000/svg" viewBox="-99.17926025390625 14.300000000000004 698.3585205078125 121.39999999999999" style="background: rgba(0, 0, 0, 0);" preserveAspectRatio="xMidYMid"><defs><filter id="editing-raise" x="-100%" y="-100%" width="300%" height="300%"><feFlood flood-color="#ccc" result="flood-surface"></feFlood><feFlood flood-color="#777" result="flood-extrude"></feFlood><feMorphology operator="erode" in="SourceAlpha" radius="1" result="erode"></feMorphology><feConvolveMatrix in="erode" result="shadow" order="11,8" divisor="1" kernelMatrix="0 0 0 1 1 1 1 1 0 0 0 0 0 1 0 0 0 0 0 1 0 0 0 0 1 0 0 0 0 0 1 0 0 0 0 1 0 0 0 0 0 1 0 0 0 0 1 0 0 0 0 0 1 0 0 0 0 0 1 0 0 0 1 0 0 0 0 0 0 1 1 0 1 1 0 0 0 0 0 0 0 0 1 0 0 0 0 0"></feConvolveMatrix><feOffset dx="0" dy="4" in="shadow" result="offset"></feOffset><feGaussianBlur in="offset" stdDeviation="0.2" result="blur"></feGaussianBlur><feComposite operator="in" in="flood-extrude" in2="blur" result="extrude"></feComposite><feMorphology operator="erode" in="SourceAlpha" radius="1" result="erode2"></feMorphology><feConvolveMatrix in="erode2" result="out" order="4,4" divisor="1" kernelMatrix="0 1 1 0 1 0 0 1 1 0 0 1 0 1 1 0 "></feConvolveMatrix><feComposite operator="in" in="flood-surface" in2="out" result="text"></feComposite><feMerge><feMergeNode in="extrude"></feMergeNode><feMergeNode in="text"></feMergeNode></feMerge></filter></defs><g filter="url(#editing-raise)"><g transform="translate(1.1349868178367615, 104.47000122070312)"><path d="M6.53 0L-0.83 0L10.75-42.24L24.13-42.24L27.07-18.11L38.98-42.24L50.18-42.24L51.33-10.62L51.33-10.62Q51.58-4.35 54.66-2.43L54.66-2.43L54.66-2.43Q53.95-1.15 51.90 0.06L51.90 0.06L51.90 0.06Q49.86 1.28 47.14 1.28L47.14 1.28L47.14 1.28Q44.42 1.28 42.82 0.51L42.82 0.51L42.82 0.51Q41.22-0.26 40.32-1.54L40.32-1.54L40.32-1.54Q38.72-3.84 38.72-8.26L38.72-8.26L38.72-28.03L26.11 0L18.18 0L13.70-28.74L6.53 0ZM77.76-7.23L77.76-7.23L77.76-7.23Q74.43-3.78 68.35-3.78L68.35-3.78L68.35-3.78Q60.74-3.78 59.14-9.34L59.14-9.34L59.14-9.34Q58.62-11.01 58.62-12.86L58.62-12.86L58.62-12.86Q58.62-14.72 59.01-16.64L59.01-16.64L62.02-32.64L75.01-33.92L71.49-15.30L71.49-15.30Q71.36-14.46 71.17-13.57L71.17-13.57L71.17-13.57Q70.98-12.67 70.98-11.74L70.98-11.74L70.98-11.74Q70.98-10.82 71.30-10.21L71.30-10.21L71.30-10.21Q71.62-9.60 72.06-9.22L72.06-9.22L72.06-9.22Q72.83-8.70 74.21-8.70L74.21-8.70L74.21-8.70Q75.58-8.70 76.77-10.37L76.77-10.37L76.77-10.37Q77.95-12.03 78.53-14.91L78.53-14.91L82.05-32.64L94.66-33.92L89.86-8.77L89.86-8.77Q87.49 3.52 82.62 8.38L82.62 8.38L82.62 8.38Q80.13 10.88 76.90 11.87L76.90 11.87L76.90 11.87Q73.66 12.86 69.50 12.86L69.50 12.86L69.50 12.86Q62.78 12.86 58.94 10.75L58.94 10.75L58.94 10.75Q55.10 8.64 55.10 5.12L55.10 5.12L55.10 5.12Q55.10 2.50 57.09 0.99L57.09 0.99L57.09 0.99Q59.07-0.51 62.14-0.51L62.14-0.51L62.14-0.51Q64.83-0.51 66.88 0.64L66.88 0.64L66.88 0.64Q68.10 1.34 68.67 2.24L68.67 2.24L68.67 2.24Q67.20 3.52 67.20 5.63L67.20 5.63L67.20 5.63Q67.20 8.45 69.76 8.45L69.76 8.45L69.76 8.45Q73.98 8.45 76.42-1.28L76.42-1.28L76.42-1.28Q77.12-4.16 77.76-7.23ZM111.74-39.68L111.74-39.68L111.74-39.68Q112.64-41.47 114.59-42.46L114.59-42.46L114.59-42.46Q116.54-43.46 119.23-43.46L119.23-43.46L119.23-43.46Q123.46-43.46 125.98-40.42L125.98-40.42L125.98-40.42Q128.51-37.38 128.51-30.72L128.51-30.72L128.51-7.87L143.17-42.18L150.72-42.18L152.45-9.79L152.26-7.94L167.49-42.18L176.26-42.18L155.78 0L142.14 0L140.86-19.46L132.42 0L116.99 0L115.07-30.72L115.07-30.72Q114.88-34.18 113.95-36.45L113.95-36.45L113.95-36.45Q113.02-38.72 111.74-39.68ZM186.37 1.28L186.37 1.28L186.37 1.28Q172.29 1.28 172.29-11.97L172.29-11.97L172.29-11.97Q172.29-21.38 177.47-27.46L177.47-27.46L177.47-27.46Q182.98-33.92 192.51-33.92L192.51-33.92L192.51-33.92Q199.42-33.92 202.94-30.72L202.94-30.72L202.94-30.72Q206.46-27.52 206.46-20.80L206.46-20.80L206.46-20.80Q206.46-10.56 200.96-4.61L200.96-4.61L200.96-4.61Q195.58 1.28 186.37 1.28ZM188.03-26.56L188.03-26.56L188.03-26.56Q187.26-24.83 186.66-22.24L186.66-22.24L186.66-22.24Q186.05-19.65 185.28-15.55L185.28-15.55L185.28-15.55Q184.51-11.46 184.51-6.40L184.51-6.40L184.51-6.40Q184.51-4.74 185.06-3.65L185.06-3.65L185.06-3.65Q185.60-2.56 187.07-2.56L187.07-2.56L187.07-2.56Q188.54-2.56 189.47-3.26L189.47-3.26L189.47-3.26Q190.40-3.97 191.10-5.63L191.10-5.63L191.10-5.63Q192.38-8.58 193.41-14.05L193.41-14.05L193.41-14.05Q194.43-19.52 194.53-21.89L194.53-21.89L194.53-21.89Q194.62-24.26 194.62-26.02L194.62-26.02L194.62-26.02Q194.62-27.78 194.11-28.93L194.11-28.93L194.11-28.93Q193.60-30.08 192.16-30.08L192.16-30.08L192.16-30.08Q190.72-30.08 189.76-29.18L189.76-29.18L189.76-29.18Q188.80-28.29 188.03-26.56ZM237.31 1.28L237.31 1.28L237.31 1.28Q229.57 1.28 229.57-4.74L229.57-4.74L229.57-4.74Q229.63-6.40 230.14-9.22L230.14-9.22L231.30-15.10L231.30-15.10Q233.02-23.42 233.02-25.28L233.02-25.28L233.02-25.28Q233.02-28.99 230.85-28.99L230.85-28.99L230.85-28.99Q227.20-28.99 225.28-19.46L225.28-19.46L221.50 0L208.64 1.28L215.30-32.70L225.79-33.92L224.77-27.65L224.77-27.65Q227.78-33.92 236.99-33.92L236.99-33.92L236.99-33.92Q241.47-33.92 243.36-32.03L243.36-32.03L243.36-32.03Q245.25-30.14 245.25-25.92L245.25-25.92L245.25-25.92Q245.25-21.95 243.20-12.67L243.20-12.67L243.20-12.67Q242.24-8.51 242.24-6.94L242.24-6.94L242.24-6.94Q242.24-5.38 243.10-4.48L243.10-4.48L243.10-4.48Q243.97-3.58 245.25-3.46L245.25-3.46L245.25-3.46Q244.61-1.28 242.40 0L242.40 0L242.40 0Q240.19 1.28 237.31 1.28ZM270.53-33.92L270.53-33.92L270.53-33.92Q272.83-33.92 274.62-33.41L274.62-33.41L274.62-33.41Q274.69-33.66 274.82-34.37L274.82-34.37L275.14-36.35L275.14-36.35Q275.39-37.63 275.78-39.74L275.78-39.74L276.80-44.80L289.54-46.08L282.43-8.96L282.43-8.96Q282.37-8.58 282.37-7.94L282.37-7.94L282.37-6.91L282.37-6.91Q282.37-5.50 283.07-4.45L283.07-4.45L283.07-4.45Q283.78-3.39 284.93-3.39L284.93-3.39L284.93-3.39Q283.65-0.38 279.74 0.90L279.74 0.90L279.74 0.90Q278.40 1.28 276.51 1.28L276.51 1.28L276.51 1.28Q274.62 1.28 272.90 0.29L272.90 0.29L272.90 0.29Q271.17-0.70 270.66-2.37L270.66-2.37L270.66-2.37Q269.63-0.70 267.58 0.29L267.58 0.29L267.58 0.29Q265.54 1.28 262.56 1.28L262.56 1.28L262.56 1.28Q259.58 1.28 257.12 0.51L257.12 0.51L257.12 0.51Q254.66-0.26 253.12-1.92L253.12-1.92L253.12-1.92Q250.30-5.18 250.30-12.61L250.30-12.61L250.30-12.61Q250.30-22.21 255.94-28.03L255.94-28.03L255.94-28.03Q261.57-33.92 270.53-33.92ZM270.08-30.08L270.08-30.08L270.08-30.08Q267.71-30.08 266.43-27.52L266.43-27.52L266.43-27.52Q265.15-24.96 263.84-18.62L263.84-18.62L263.84-18.62Q262.53-12.29 262.53-6.59L262.53-6.59L262.53-6.59Q262.53-2.69 264.83-2.69L264.83-2.69L264.83-2.69Q266.88-2.69 268.32-4.74L268.32-4.74L268.32-4.74Q269.76-6.78 270.34-10.18L270.34-10.18L273.79-28.93L273.79-28.93Q272.45-30.08 270.08-30.08ZM316.29-10.82L316.29-10.82L316.29-10.82Q317.89-9.73 317.89-7.33L317.89-7.33L317.89-7.33Q317.89-4.93 316.67-3.39L316.67-3.39L316.67-3.39Q315.46-1.86 313.47-0.83L313.47-0.83L313.47-0.83Q309.38 1.28 304.96 1.28L304.96 1.28L304.96 1.28Q300.54 1.28 297.95 0.32L297.95 0.32L297.95 0.32Q295.36-0.64 293.63-2.43L293.63-2.43L293.63-2.43Q290.24-5.82 290.24-12.03L290.24-12.03L290.24-12.03Q290.24-21.70 295.49-27.58L295.49-27.58L295.49-27.58Q301.12-33.92 310.91-33.92L310.91-33.92L310.91-33.92Q316.99-33.92 320-31.36L320-31.36L320-31.36Q322.24-29.44 322.24-26.30L322.24-26.30L322.24-26.30Q322.24-15.04 302.78-15.04L302.78-15.04L302.78-15.04Q302.53-13.38 302.53-11.97L302.53-11.97L302.53-11.97Q302.53-9.02 303.84-7.90L303.84-7.90L303.84-7.90Q305.15-6.78 307.58-6.78L307.58-6.78L307.58-6.78Q310.02-6.78 312.61-7.90L312.61-7.90L312.61-7.90Q315.20-9.02 316.29-10.82ZM303.23-17.79L303.23-17.79L303.23-17.79Q307.78-17.79 310.40-20.61L310.40-20.61L310.40-20.61Q313.02-23.30 313.02-27.58L313.02-27.58L313.02-27.58Q313.02-29.06 312.48-29.86L312.48-29.86L312.48-29.86Q311.94-30.66 310.85-30.66L310.85-30.66L310.85-30.66Q309.76-30.66 308.83-30.24L308.83-30.24L308.83-30.24Q307.90-29.82 306.94-28.42L306.94-28.42L306.94-28.42Q304.58-25.22 303.23-17.79ZM344.45-17.98L344.45-17.98L344.45-17.98Q346.75-22.08 346.75-26.24L346.75-26.24L346.75-26.24Q346.75-28.99 344.77-28.99L344.77-28.99L344.77-28.99Q343.23-28.99 341.63-26.37L341.63-26.37L341.63-26.37Q339.97-23.74 339.46-20.35L339.46-20.35L336.13 0L322.88 1.28L329.41-32.64L339.97-33.92L338.82-27.46L338.82-27.46Q341.95-33.92 348.99-33.92L348.99-33.92L348.99-33.92Q352.70-33.92 354.72-32L354.72-32L354.72-32Q356.74-30.08 356.74-26.14L356.74-26.14L356.74-26.14Q356.74-22.21 354.14-19.71L354.14-19.71L354.14-19.71Q351.55-17.22 347.14-17.22L347.14-17.22L347.14-17.22Q345.22-17.22 344.45-17.98ZM373.06-3.52L373.06-3.52L373.06-3.52Q371.07 1.28 364.74 1.28L364.74 1.28L364.74 1.28Q361.54 1.28 359.49-0.96L359.49-0.96L359.49-0.96Q357.82-2.82 357.82-4.93L357.82-4.93L357.82-4.93Q357.82-9.73 360.06-20.22L360.06-20.22L364.74-44.80L377.73-46.08L371.52-13.70L371.52-13.70Q370.43-8.96 370.43-7.30L370.43-7.30L370.43-7.30Q370.43-3.65 373.06-3.52ZM381.28-1.92L381.28-1.92L381.28-1.92Q379.78-3.58 379.10-6.21L379.10-6.21L379.10-6.21Q378.43-8.83 378.43-13.12L378.43-13.12L378.43-13.12Q378.43-17.41 379.90-21.31L379.90-21.31L379.90-21.31Q381.38-25.22 384.06-28.03L384.06-28.03L384.06-28.03Q389.57-33.92 398.66-33.92L398.66-33.92L398.66-33.92Q401.92-33.92 404.29-32.83L404.29-32.83L415.23-33.92L410.50-8.96L410.50-8.96Q410.30-8.19 410.30-6.78L410.30-6.78L410.30-6.78Q410.30-5.38 411.17-4.48L411.17-4.48L411.17-4.48Q412.03-3.58 413.31-3.46L413.31-3.46L413.31-3.46Q412.67-1.28 410.34 0L410.34 0L410.34 0Q408.00 1.28 405.38 1.28L405.38 1.28L405.38 1.28Q402.75 1.28 400.99 0.29L400.99 0.29L400.99 0.29Q399.23-0.70 398.72-2.37L398.72-2.37L398.72-2.37Q397.70-0.77 395.52 0.26L395.52 0.26L395.52 0.26Q393.34 1.28 390.43 1.28L390.43 1.28L390.43 1.28Q387.52 1.28 385.15 0.51L385.15 0.51L385.15 0.51Q382.78-0.26 381.28-1.92ZM394.78-27.90L394.78-27.90L394.78-27.90Q394.05-26.75 393.41-24.80L393.41-24.80L393.41-24.80Q392.77-22.85 391.71-17.63L391.71-17.63L391.71-17.63Q390.66-12.42 390.66-8.70L390.66-8.70L390.66-8.70Q390.66-4.99 391.23-3.90L391.23-3.90L391.23-3.90Q391.81-2.82 392.83-2.82L392.83-2.82L392.83-2.82Q394.88-2.82 396.38-4.77L396.38-4.77L396.38-4.77Q397.89-6.72 398.46-10.18L398.46-10.18L401.86-28.93L401.86-28.93Q400.51-30.08 398.94-30.08L398.94-30.08L398.94-30.08Q397.38-30.08 396.45-29.57L396.45-29.57L396.45-29.57Q395.52-29.06 394.78-27.90ZM445.76 1.28L445.76 1.28L445.76 1.28Q438.02 1.28 438.02-4.74L438.02-4.74L438.02-4.74Q438.08-6.40 438.59-9.22L438.59-9.22L439.74-15.10L439.74-15.10Q441.47-23.42 441.47-25.28L441.47-25.28L441.47-25.28Q441.47-28.99 439.30-28.99L439.30-28.99L439.30-28.99Q435.65-28.99 433.73-19.46L433.73-19.46L429.95 0L417.09 1.28L423.74-32.70L434.24-33.92L433.22-27.65L433.22-27.65Q436.22-33.92 445.44-33.92L445.44-33.92L445.44-33.92Q449.92-33.92 451.81-32.03L451.81-32.03L451.81-32.03Q453.70-30.14 453.70-25.92L453.70-25.92L453.70-25.92Q453.70-21.95 451.65-12.67L451.65-12.67L451.65-12.67Q450.69-8.51 450.69-6.94L450.69-6.94L450.69-6.94Q450.69-5.38 451.55-4.48L451.55-4.48L451.55-4.48Q452.42-3.58 453.70-3.46L453.70-3.46L453.70-3.46Q453.06-1.28 450.85 0L450.85 0L450.85 0Q448.64 1.28 445.76 1.28ZM478.98-33.92L478.98-33.92L478.98-33.92Q481.28-33.92 483.07-33.41L483.07-33.41L483.07-33.41Q483.14-33.66 483.26-34.37L483.26-34.37L483.58-36.35L483.58-36.35Q483.84-37.63 484.22-39.74L484.22-39.74L485.25-44.80L497.98-46.08L490.88-8.96L490.88-8.96Q490.82-8.58 490.82-7.94L490.82-7.94L490.82-6.91L490.82-6.91Q490.82-5.50 491.52-4.45L491.52-4.45L491.52-4.45Q492.22-3.39 493.38-3.39L493.38-3.39L493.38-3.39Q492.10-0.38 488.19 0.90L488.19 0.90L488.19 0.90Q486.85 1.28 484.96 1.28L484.96 1.28L484.96 1.28Q483.07 1.28 481.34 0.29L481.34 0.29L481.34 0.29Q479.62-0.70 479.10-2.37L479.10-2.37L479.10-2.37Q478.08-0.70 476.03 0.29L476.03 0.29L476.03 0.29Q473.98 1.28 471.01 1.28L471.01 1.28L471.01 1.28Q468.03 1.28 465.57 0.51L465.57 0.51L465.57 0.51Q463.10-0.26 461.57-1.92L461.57-1.92L461.57-1.92Q458.75-5.18 458.75-12.61L458.75-12.61L458.75-12.61Q458.75-22.21 464.38-28.03L464.38-28.03L464.38-28.03Q470.02-33.92 478.98-33.92ZM478.53-30.08L478.53-30.08L478.53-30.08Q476.16-30.08 474.88-27.52L474.88-27.52L474.88-27.52Q473.60-24.96 472.29-18.62L472.29-18.62L472.29-18.62Q470.98-12.29 470.98-6.59L470.98-6.59L470.98-6.59Q470.98-2.69 473.28-2.69L473.28-2.69L473.28-2.69Q475.33-2.69 476.77-4.74L476.77-4.74L476.77-4.74Q478.21-6.78 478.78-10.18L478.78-10.18L482.24-28.93L482.24-28.93Q480.90-30.08 478.53-30.08Z"></path></g></g><style>text {
  font-size: 64px;
  font-family: Arial Black;
  dominant-baseline: central;
  text-anchor: middle;
}</style></svg>